# xmcd CD database file
#
# Track frame offsets:
#	150
#	28751
#	47414
#	75186
#	105226
#	133288
#	160729
#	189745
#
# Disc length: 2877 seconds
#
# Revision: 0
# Processed by: cddbd v1.5.2PL0 Copyright (c) Steve Scherf et al.
# Submitted via: CDex 1.70beta2
#
DISCID=580b3b08
DTITLE=Julio Castro Y La Masacre - Mamey
DYEAR=1980
DGENRE=Salsa
TTITLE0=Rumba Sin Invitados
TTITLE1=Hombre Del Campo
TTITLE2=Jibarita
TTITLE3=Tambores De Guerra
TTITLE4=Celoso
TTITLE5=Son De Los Pmameyes
TTITLE6=Di Lo Que Vendes
TTITLE7=Sabor Añejo De Rumba
EXTD=YEAR: 1980
EXTT0=
EXTT1=
EXTT2=
EXTT3=
EXTT4=
EXTT5=
EXTT6=
EXTT7=
PLAYORDER=
